<?xml version="1.0" encoding="UTF-8" standalone="no"?>
<svg
   xmlns:dc="http://purl.org/dc/elements/1.1/"
   xmlns:cc="http://creativecommons.org/ns#"
   xmlns:rdf="http://www.w3.org/1999/02/22-rdf-syntax-ns#"
   xmlns:svg="http://www.w3.org/2000/svg"
   xmlns="http://www.w3.org/2000/svg"
   xmlns:sodipodi="http://sodipodi.sourceforge.net/DTD/sodipodi-0.dtd"
   xmlns:inkscape="http://www.inkscape.org/namespaces/inkscape"
   width="509.8125"
   height="510.68896"
   id="svg3048"
   version="1.1"
   inkscape:version="0.48.3.1 r9886"
   sodipodi:docname="lightbulb.svg">
  <metadata
     id="metadata3071">
    <rdf:RDF>
      <cc:Work
         rdf:about="">
        <dc:format>image/svg+xml</dc:format>
        <dc:type
           rdf:resource="http://purl.org/dc/dcmitype/StillImage" />
      </cc:Work>
    </rdf:RDF>
  </metadata>
  <defs
     id="defs3069">
    <clipPath
       clipPathUnits="userSpaceOnUse"
       id="clipPath3075">
      <rect
         style="fill:#0000ff;fill-rule:evenodd;stroke:#000000;stroke-width:1px;stroke-linecap:butt;stroke-linejoin:miter;stroke-opacity:1"
         id="rect3077"
         width="646.87573"
         height="613.58069"
         x="52.320831"
         y="318.68143" />
    </clipPath>
  </defs>
  <sodipodi:namedview
     pagecolor="#ffffff"
     bordercolor="#666666"
     borderopacity="1"
     objecttolerance="10"
     gridtolerance="10"
     guidetolerance="10"
     inkscape:pageopacity="0"
     inkscape:pageshadow="2"
     inkscape:window-width="640"
     inkscape:window-height="480"
     id="namedview3067"
     showgrid="false"
     fit-margin-top="0"
     fit-margin-left="0"
     fit-margin-right="0"
     fit-margin-bottom="0"
     inkscape:zoom="0.21024131"
     inkscape:cx="284.81915"
     inkscape:cy="321.02289"
     inkscape:window-x="142"
     inkscape:window-y="24"
     inkscape:window-maximized="0"
     inkscape:current-layer="svg3048" />
  <title
     id="title3050" />
  <g
     id="g3052"
     clip-path="url(#clipPath3075)"
     transform="translate(-112.03125,-371.59375)">
    <title
       id="title3054">Layer 1</title>
    <path
       id="path1351"
       d="m 280.74759,753.7832 c 6.99103,-10.99145 6.28927,-25.33166 5.47809,-37.86743 -5.53733,-20.75561 -20.47547,-37.80115 -24.78888,-59.05798 -4.85285,-13.30664 -11.64752,-26.40515 -10.94727,-41.01282 0.23999,-16.47192 -0.75253,-33.05041 0.54721,-49.45654 4.05606,-16.96009 17.99268,-29.66407 33.83347,-35.89698 15.86316,-8.8695 34.68994,-9.92797 50.42563,-19.14489 13.31155,-4.94922 27.83258,-0.94202 41.66876,-2.02039 13.80029,-0.17615 27.96619,-0.82666 40.93115,4.81738 15.15125,2.67652 27.59696,12.51551 36.74903,24.48475 7.86108,9.06652 15.36895,19.33825 13.97125,32.08923 0.40509,12.24377 0.76471,25.88281 -8.06128,35.58337 -8.46848,11.37403 -22.28528,18.38574 -27.37753,32.28418 -7.2562,19.21167 -25.69712,20.18164 -37.27225,36.40625 -6.90305,8.01941 -22.58884,20.12427 -20.80634,33.83948 1.27747,10.81824 3.11618,21.854 -3.04596,31.63232 -4.51654,9.39698 -2.59668,26.06604 -16.31137,27.15882 -21.32867,1.4945 -43.44638,-0.15601 -62.87188,-9.7981 -3.84336,-1.91601 -8.27848,-2.12475 -12.12183,-4.04065 z"
       inkscape:connector-curvature="0"
       style="fill:#ffff55;fill-rule:evenodd;stroke:#000000;stroke-width:1pt" />
    <path
       id="path1291"
       d="m 268.62412,756.64294 c 4.34188,-8.40136 5.29257,-18.97277 6.21963,-28.52966 -0.16571,-12.72754 -6.48535,-24.33813 -10.84552,-36.08325 -8.30621,-21.35193 -16.25562,-42.71045 -21.17355,-65.10816 -3.85279,-17.13842 -4.88147,-34.79614 -3.22834,-52.24877 4.33445,-19.11145 19.83109,-32.78577 35.27002,-43.70655 24.58414,-16.6261 48.93647,-26.29992 78.22541,-27.11474 35.17538,-0.34607 71.15988,2.49316 103.25247,17.83203 13.6203,7.35779 20.10461,20.67065 21.64294,35.57361 -0.82574,19.17309 -3.83966,39.05395 -13.84887,55.66369 -9.52668,13.92688 -20.61194,26.77393 -32.99888,38.21729 -8.80233,7.32422 -17.00466,15.22351 -25.16781,23.23925 -7.48541,9.30787 -15.31525,18.5033 -20.94763,29.0514 -4.05024,8.81604 -3.64191,18.38037 -3.66455,27.84033 0.44372,9.03186 -0.071,17.85742 -1.54603,26.74524 l -23.65274,11.74499 c 1.25922,-8.83618 2.37595,-17.52112 1.7103,-26.51501 -0.0156,-9.68225 -0.58996,-19.60694 3.27738,-28.71057 5.04293,-11.16382 13.2778,-20.28418 20.66464,-30.01966 8.00616,-8.25415 16.22079,-16.23864 25.09186,-23.5802 12.73101,-11.06396 23.82934,-23.98596 33.63357,-37.70385 10.27707,-15.79847 13.65042,-35.32178 14.27677,-53.94446 -1.72269,-14.05408 -6.84507,-26.453 -20.08265,-33.38135 -31.64679,-15.93823 -67.41861,-18.47339 -102.37695,-16.89795 -16.56525,0.79663 -74.58539,20.6969 -33.45642,2.58338 -15.3873,10.2395 -30.57379,23.15283 -35.83579,41.48999 -2.1488,17.18054 -1.11413,34.73535 2.31556,51.70043 5.46988,22.08704 12.04449,43.81153 21.22836,64.69886 4.53128,12.04126 11.45441,23.77063 11.75427,36.84643 -0.90591,10.13831 -2.62387,20.18982 -5.0072,30.07373 l -24.73026,10.24353 z"
       inkscape:connector-curvature="0"
       style="fill:#000000;fill-rule:nonzero;stroke-width:1pt" />
    <path
       id="path1293"
       d="m 287.78619,743.88892 c 9.2844,3.40283 18.44062,7.63 27.8288,10.96679 12.56345,5.01123 25.92346,4.88575 39.11594,6.11219 7.40152,1.97351 13.71856,0.58667 20.62057,-1.49744 l -20.65863,16.40747 c -7.20316,1.57092 -14.08359,1.92835 -21.39807,0.2262 -13.35413,-0.95228 -26.64401,-1.64844 -39.36038,-6.42896 -9.19126,-3.42895 -18.19824,-8.45642 -27.82331,-10.03833 l 21.67508,-15.74792 z"
       inkscape:connector-curvature="0"
       style="fill:#000000;fill-rule:nonzero;stroke-width:1pt" />
    <path
       id="path1295"
       d="m 276.521,760.06494 c 2.74511,8.30286 11.13458,12.47278 18.67907,16.24036 12.70731,3.26184 25.79654,5.35742 38.92267,6.03296 11.50977,0.32128 23.22772,-0.76331 34.43433,-3.39002 2.21826,-0.17578 4.25485,-1.12915 6.40051,-1.69848 l -20.97791,16.12194 c -2.16793,0.50415 -4.25946,1.35779 -6.50976,1.51368 -11.33954,2.1112 -22.89981,3.41577 -34.46396,2.65173 -13.37204,-0.80115 -26.95963,-2.77161 -39.73822,-6.73535 -8.31934,-4.49927 -17.08682,-9.39991 -20.61844,-18.57349 l 23.8717,-12.16333 z"
       inkscape:connector-curvature="0"
       style="fill:#000000;fill-rule:nonzero;stroke-width:1pt" />
    <path
       id="path1297"
       d="m 279.70496,790.35596 c 7.78399,3.62219 15.59738,7.70727 23.71823,10.85656 23.55975,4.57349 33.61758,5.03748 57.67859,5.08887 22.47357,-10.55371 -21.17957,21.36646 -9.88425,3.74243 l 23.80572,-11.45984 c -5.24865,13.99036 -20.49249,21.29541 -35.06417,23.26099 -24.19773,-1.35669 -34.11972,-1.87439 -57.9307,-6.17725 -8.03732,-2.91638 -15.98419,-7.39062 -23.99847,-9.56396 l 21.67505,-15.7478 z"
       inkscape:connector-curvature="0"
       style="fill:#000000;fill-rule:nonzero;stroke-width:1pt" />
    <path
       id="path1299"
       d="m 286.62253,810.57275 c 3.32702,8.70777 11.48056,13.54883 18.90085,18.67469 9.77743,5.90673 20.83447,5.7185 31.86096,5.7312 9.66678,0.75012 18.5993,-0.81177 27.53235,-4.17664 -35.25089,21.20935 -16.88831,14.0459 -13.85044,0.10047 l 23.43576,-12.11792 c -0.52877,17.47949 -13.85058,19.77246 -30.2966,28.40234 -9.24878,2.62024 -18.42425,4.03979 -28.13147,3.27087 -11.43722,-0.16491 -22.7619,-0.5675 -32.67053,-7.05029 -8.12903,-5.69043 -16.50223,-11.29028 -20.65259,-20.67163 l 23.87171,-12.16309 z"
       inkscape:connector-curvature="0"
       style="fill:#000000;fill-rule:nonzero;stroke-width:1pt" />
    <path
       id="path1301"
       d="m 335.10986,846.93811 c 0.11191,7.90942 -1.24984,15.68713 -1.96215,23.54224 l -23.53345,11.80236 c 0.63504,-7.73681 2.21243,-15.40234 1.62387,-23.18127 l 23.87173,-12.16333 z"
       inkscape:connector-curvature="0"
       style="fill:#000000;fill-rule:nonzero;stroke-width:1pt" />
    <path
       id="path1315"
       d="m 132.88507,474.41736 c 13.76382,9.76281 12.38495,10.81164 27.58481,18.43542 10.68582,5.02552 20.50644,11.57898 31.11008,16.7909 6.18509,3.28003 1.81317,5.27136 11.54321,9.32129 l -14.09909,14.16394 c -5.56769,-3.97742 -11.08505,-8.06971 -17.21677,-11.16102 -10.5823,-5.26464 -20.57739,-11.45459 -31.1246,-16.76074 -14.66016,-7.82629 -12.78992,-10.03808 -27.40546,-17.09643 l 19.60782,-13.69336 z"
       inkscape:connector-curvature="0"
       style="fill:#ffff55;fill-rule:nonzero;stroke:#000000;stroke-width:1pt" />
    <path
       id="path1317"
       d="m 277.47073,372.3869 c 12.14984,12.28998 35.2338,66.6203 37.61371,73.71137 l -17.06082,8.58947 c -2.29654,-6.87353 -23.83685,-61.53204 -37.31531,-72.35522 l 16.76242,-9.94562 z"
       inkscape:connector-curvature="0"
       style="fill:#ffff55;fill-rule:nonzero;stroke:#000000;stroke-width:1pt" />
    <path
       id="path1319"
       d="m 461.15686,382.16773 c -5.03607,20.34582 -14.51215,53.75769 -22.28845,73.29321 l -17.5979,-8.91773 c 8.68341,-18.67993 18.44873,-51.75171 22.0755,-71.97113 l 17.81085,7.59564 z"
       inkscape:connector-curvature="0"
       style="fill:#ffff55;fill-rule:nonzero;stroke:#000000;stroke-width:1pt" />
    <path
       id="path1349"
       d="m 538.78198,533.49646 c 22.86542,-13.48865 53.41986,-17.96655 79.50293,-25.3313 l 2.83746,16.35449 c -25.06164,6.89881 -51.5675,14.02759 -75.39373,22.92578 l -6.94666,-13.94897 z"
       inkscape:connector-curvature="0"
       style="fill:#ffff55;fill-rule:nonzero;stroke:#000000;stroke-width:1pt" />
  </g>
</svg>
