<?xml version="1.0" encoding="utf-8"?>
<!-- Generator: Adobe Illustrator 16.2.1, SVG Export Plug-In . SVG Version: 6.00 Build 0)  -->
<!DOCTYPE svg PUBLIC "-//W3C//DTD SVG 1.1//EN" "http://www.w3.org/Graphics/SVG/1.1/DTD/svg11.dtd">
<svg version="1.1" id="Layer_1" xmlns="http://www.w3.org/2000/svg" xmlns:xlink="http://www.w3.org/1999/xlink" x="0px" y="0px"
	 width="180px" height="93px" viewBox="0 0 180 93" enable-background="new 0 0 180 93" xml:space="preserve">
<linearGradient id="SVGID_1_" gradientUnits="userSpaceOnUse" x1="29.3652" y1="54.2012" x2="150.5" y2="54.2012">
	<stop  offset="0" style="stop-color:#FFB380"/>
	<stop  offset="1" style="stop-color:#FF8B3D"/>
</linearGradient>
<path fill="url(#SVGID_1_)" d="M142.192,32.222c-3.771-1.651-14.613-6.6-19.562-4.95c-3.374,1.124-7.308,9.407-9.899,11.783
	c-0.264,0.243-0.589,0.518-0.954,0.809c-7.056-13.444-20.777-21.017-29.901-18.473c-6.219,1.733-11.928,8.862-14.521,18.14
	c-4.489-2.689-6.837-7.227-10.761-11.27c-3.139-3.235-7.298-1.891-10.934-0.213c-7.168,3.308-16.608,8.221-16.286,15.901
	c4.223-3.037,8.296-2.15,9.62,3.362c0.257,1.043,2.649-3.557,5.426-4.617c3.18-1.213,6.706,1.716,7.354,4.918
	c0.153,0.565,2.913-3.46,5.662-2.147c1.978,0.944,3.157,5.13,3.86,4.663c2.007-1.332,3.362-2.827,4.803-3.952
	c-0.483,4.715-0.162,9.736,1.242,14.738c0.078,0.281,0.167,0.557,0.25,0.836c0.952-8.871,5.882-16.202,11.358-17.73
	c7.747-2.159,20.095,5.796,23.765,18.873c2.728,9.723,0.834,19.262-4.202,24.607c0.604-0.104,1.207-0.229,1.806-0.397
	c13.123-3.681,19.628-21.377,14.535-39.523c-0.099-0.35-0.209-0.691-0.315-1.035c3.162,1.745,4.726,4.546,4.845,4.061
	c1.2-5.556,7.904-5.716,12.268-1.726c0.424,0.365,0.565-4.297,2.295-4.932c2.678-0.985,5.671,0.511,8.484,2.179
	c0.507,0.301,0.373-2.224,0.332-2.541c-0.163-1.21-0.073-2.508,1.29-2.92c2.12-0.64,4.505,0.453,6.45,0.896
	C149.91,37.347,145.793,33.796,142.192,32.222z"/>
<g>
	<path fill="#FAB280" d="M151.781,28.139h0.828c2.196,0,2.592-0.396,2.592-2.629V10.355c0-2.23-0.396-2.627-2.592-2.627h-0.828V5.93
		h6.911c0.504,0,1.225,0,2.16-0.037c1.26-0.035,2.592-0.035,3.348-0.035c4.859,0,7.774,1.043,10.114,3.672
		c1.98,2.195,3.024,5.146,3.024,8.566c0,4.355-1.8,8.1-4.859,10.186c-1.765,1.189-3.636,1.656-6.516,1.656h-14.183V28.139z
		 M163.048,28.174c3.528,0,5.436-0.756,6.804-2.664c1.188-1.691,1.871-4.391,1.871-7.414c0-4.393-1.403-7.559-3.995-9.143
		c-1.764-1.045-2.808-1.225-7.343-1.225v18.105C160.385,27.742,160.853,28.174,163.048,28.174z"/>
	<path fill="#FAB280" d="M127.701,10.355v14.815c1.683,0.257,3.466,0.711,5.227,1.263c-0.026-0.27-0.043-0.565-0.043-0.924v-6.443
		c0.396-0.035,0.575-0.035,0.756-0.035c1.8,0,2.844,1.008,5.399,5.256c2.375,3.924,2.447,4.031,4.104,5.65h6.479v-1.656h-0.252
		c-1.439,0-1.8-0.287-3.491-2.879c-3.924-5.975-4.464-6.443-8.135-6.982c2.159-0.145,3.167-0.396,4.175-1.08
		c1.872-1.225,2.844-3.096,2.844-5.4c0-3.742-2.375-6.01-6.263-6.01h-14.255v1.799h0.864
		C127.306,7.729,127.701,8.125,127.701,10.355z M132.885,7.729h2.268c1.476,0,1.979,0.108,2.699,0.576
		c1.116,0.72,1.729,2.123,1.729,4.031c0,3.312-1.513,4.824-4.788,4.824h-1.907V7.729z"/>
	<path fill="#FAB280" d="M118.561,27.893c-0.648-0.312-0.803-0.99-0.803-2.383V10.355c0-1.367,0.071-1.727,0.432-2.087
		c0.396-0.396,1.008-0.54,2.16-0.54h0.792V5.93H109.19v1.799h0.792c1.152,0,1.764,0.18,2.16,0.54c0.359,0.36,0.432,0.72,0.432,2.087
		V25.51c0,2.232-0.396,2.629-2.592,2.629h-0.792v1.799h7.707C117.442,29.204,117.996,28.51,118.561,27.893z"/>
	<path fill="#FAB280" d="M88.822,8.269c0.359,0.36,0.432,0.72,0.432,2.087v8.877c1.726,0.308,3.462,0.834,5.184,1.539v-2.279h1.26
		c2.231,0,2.844,0.143,3.636,0.756c1.044,0.828,1.619,2.34,1.619,4.246c0,0.298-0.019,0.59-0.047,0.876
		c1.407,0.995,2.777,2.102,4.085,3.324c0.979-1.133,1.506-2.605,1.506-4.308c0-3.635-1.98-5.65-6.264-6.443
		c1.332-0.107,1.908-0.287,2.664-0.756c1.476-0.936,2.34-2.555,2.34-4.391c0-3.348-2.628-5.867-6.12-5.867H85.942v1.799h0.72
		C87.814,7.729,88.426,7.873,88.822,8.269z M94.438,8.089h0.684c2.304,0,2.808,0.071,3.563,0.647c0.9,0.648,1.332,1.729,1.332,3.42
		c0,1.439-0.324,2.664-0.864,3.383c-0.647,0.828-1.512,1.117-3.6,1.117h-1.115V8.089z"/>
</g>
<g>
	<path fill="#FF8B3D" d="M4.859,9.061c2.699-2.736,5.939-4.031,9.971-4.031c7.379,0,12.886,5.398,12.886,12.598
		c0,7.668-5.579,13.211-13.246,13.211c-7.595,0-13.138-5.398-13.138-12.742C1.332,14.531,2.555,11.436,4.859,9.061z M14.541,28.605
		c2.376,0,4.356-0.936,5.508-2.52c1.188-1.654,2.016-5.111,2.016-8.387c0-3.492-0.899-6.73-2.304-8.387
		c-1.151-1.296-3.131-2.123-5.183-2.123c-4.896,0-7.596,3.742-7.596,10.475C6.982,24.754,9.646,28.605,14.541,28.605z"/>
	<path fill="#FF8B3D" d="M61.35,10.355V25.51c0,2.069-0.359,2.556-2.159,2.616c0.536,0.604,1.043,1.209,1.534,1.812h8.541
		c0.369-0.621,0.755-1.221,1.152-1.799c-0.385,0.023-0.79,0.035-1.222,0.035c-2.195,0-2.663-0.432-2.663-2.34V7.729
		c4.535,0,5.579,0.18,7.343,1.225c2.592,1.584,3.995,4.75,3.995,9.143c0,1.049-0.087,2.054-0.244,2.996
		c1.204-0.72,2.445-1.275,3.711-1.628c0.676-0.188,1.378-0.329,2.101-0.423c0.019-0.314,0.049-0.624,0.049-0.945
		c0-3.42-1.044-6.371-3.024-8.566c-2.34-2.629-5.255-3.672-10.114-3.672c-0.756,0-2.088,0-3.348,0.035
		c-0.936,0.037-1.656,0.037-2.16,0.037H57.93v1.799h0.828C60.954,7.729,61.35,8.125,61.35,10.355z"/>
	<path fill="#FF8B3D" d="M40.806,28.161c-1.812-0.063-2.233-0.557-2.233-2.327V7.729c4.535,0,5.579,0.18,7.343,1.225
		c2.592,1.584,3.995,4.75,3.995,9.143c0,2.648-0.524,5.048-1.453,6.739c1.121-0.323,2.299-0.547,3.476-0.547
		c0.711,0,1.389,0.087,2.039,0.241c0.996-1.85,1.555-4.043,1.555-6.434c0-3.42-1.044-6.371-3.024-8.566
		c-2.34-2.629-5.255-3.672-10.114-3.672c-0.756,0-2.088,0-3.348,0.035C38.104,5.93,37.384,5.93,36.88,5.93h-6.911v1.799h0.828
		c2.196,0,2.592,0.396,2.592,2.627V25.51c0,2.232-0.396,2.629-2.592,2.629h-0.828v1.799h7.622
		C38.679,29.284,39.766,28.693,40.806,28.161z"/>
</g>
</svg>
